# Authored Minecraft Alex Slim mesh; no external model asset
o Arm_R_base
v 0.96875 1.28125 0.125
v 0.96875 1.46875 0.125
v 0.21875 1.46875 0.125
v 0.21875 1.28125 0.125
v 0.96875 1.46875 -0.125
v 0.96875 1.28125 -0.125
v 0.21875 1.28125 -0.125
v 0.21875 1.46875 -0.125
v 0.96875 1.28125 -0.125
v 0.96875 1.28125 0.125
v 0.21875 1.28125 0.125
v 0.21875 1.28125 -0.125
v 0.96875 1.46875 0.125
v 0.96875 1.46875 -0.125
v 0.21875 1.46875 -0.125
v 0.21875 1.46875 0.125
v 0.21875 1.28125 0.125
v 0.21875 1.46875 0.125
v 0.21875 1.46875 -0.125
v 0.21875 1.28125 -0.125
v 0.96875 1.28125 -0.125
v 0.96875 1.46875 -0.125
v 0.96875 1.46875 0.125
v 0.96875 1.28125 0.125
vt 0.6875 0.5
vt 0.734375 0.5
vt 0.734375 0.6875
vt 0.6875 0.6875
vt 0.796875 0.5
vt 0.84375 0.5
vt 0.84375 0.6875
vt 0.796875 0.6875
vt 0.625 0.5
vt 0.6875 0.5
vt 0.6875 0.6875
vt 0.625 0.6875
vt 0.734375 0.5
vt 0.796875 0.5
vt 0.796875 0.6875
vt 0.734375 0.6875
vt 0.6875 0.6875
vt 0.734375 0.6875
vt 0.734375 0.75
vt 0.6875 0.75
vt 0.734375 0.75
vt 0.78125 0.75
vt 0.78125 0.6875
vt 0.734375 0.6875
f 1/1 2/2 3/3
f 1/1 3/3 4/4
f 5/5 6/6 7/7
f 5/5 7/7 8/8
f 9/9 10/10 11/11
f 9/9 11/11 12/12
f 13/13 14/14 15/15
f 13/13 15/15 16/16
f 17/17 18/18 19/19
f 17/17 19/19 20/20
f 21/21 22/22 23/23
f 21/21 23/23 24/24
