# Authored Minecraft Alex Slim mesh; no external model asset
o Head_layer2
v -0.28125 1.46875 0.28125
v 0.28125 1.46875 0.28125
v 0.28125 2.03125 0.28125
v -0.28125 2.03125 0.28125
v 0.28125 1.46875 -0.28125
v -0.28125 1.46875 -0.28125
v -0.28125 2.03125 -0.28125
v 0.28125 2.03125 -0.28125
v -0.28125 1.46875 -0.28125
v -0.28125 1.46875 0.28125
v -0.28125 2.03125 0.28125
v -0.28125 2.03125 -0.28125
v 0.28125 1.46875 0.28125
v 0.28125 1.46875 -0.28125
v 0.28125 2.03125 -0.28125
v 0.28125 2.03125 0.28125
v -0.28125 2.03125 0.28125
v 0.28125 2.03125 0.28125
v 0.28125 2.03125 -0.28125
v -0.28125 2.03125 -0.28125
v -0.28125 1.46875 -0.28125
v 0.28125 1.46875 -0.28125
v 0.28125 1.46875 0.28125
v -0.28125 1.46875 0.28125
vt 0.625 0.75
vt 0.75 0.75
vt 0.75 0.875
vt 0.625 0.875
vt 0.875 0.75
vt 1.0 0.75
vt 1.0 0.875
vt 0.875 0.875
vt 0.5 0.75
vt 0.625 0.75
vt 0.625 0.875
vt 0.5 0.875
vt 0.75 0.75
vt 0.875 0.75
vt 0.875 0.875
vt 0.75 0.875
vt 0.625 0.875
vt 0.75 0.875
vt 0.75 1.0
vt 0.625 1.0
vt 0.75 1.0
vt 0.875 1.0
vt 0.875 0.875
vt 0.75 0.875
f 1/1 2/2 3/3
f 1/1 3/3 4/4
f 5/5 6/6 7/7
f 5/5 7/7 8/8
f 9/9 10/10 11/11
f 9/9 11/11 12/12
f 13/13 14/14 15/15
f 13/13 15/15 16/16
f 17/17 18/18 19/19
f 17/17 19/19 20/20
f 21/21 22/22 23/23
f 21/21 23/23 24/24
